<?xml version="1.0" standalone="no"?>
<!DOCTYPE svg PUBLIC "-//W3C//DTD SVG 20010904//EN"
 "http://www.w3.org/TR/2001/REC-SVG-20010904/DTD/svg10.dtd">
<svg version="1.0" xmlns="http://www.w3.org/2000/svg"
 width="1008.000000pt" height="1008.000000pt" viewBox="0 0 1008.000000 1008.000000"
 preserveAspectRatio="xMidYMid meet">
<metadata>
Created by potrace 1.14, written by Peter Selinger 2001-2017
</metadata>
<g transform="translate(0.000000,1008.000000) scale(0.100000,-0.100000)"
fill="#000000" stroke="none">
<path d="M440 6420 l0 -2600 720 0 720 0 -2 -197 -3 -198 -717 -3 -718 -2 0
-1180 0 -1180 1400 0 1400 0 0 2600 0 2600 -720 0 -720 0 2 198 3 197 718 3
717 2 0 1180 0 1180 -1400 0 -1400 0 0 -2600z"/>
<path d="M3640 5040 l0 -3980 600 0 600 0 0 1610 0 1610 200 0 200 0 0 -1610
0 -1610 600 0 600 0 0 3980 0 3980 -600 0 -600 0 0 -1610 0 -1610 -200 0 -200
0 0 1610 0 1610 -600 0 -600 0 0 -3980z"/>
<path d="M6840 5040 l0 -3980 1400 0 1400 0 0 3980 0 3980 -1400 0 -1400 0 0
-3980z m1600 0 l0 -1590 -200 0 -200 0 0 1590 0 1590 200 0 200 0 0 -1590z"/>
</g>
</svg>
